PathFileType	4	(X/Y/Z)	Apose_0-50.trc
DataRate	CameraRate	NumFrames	NumMarkers	Units	OrigDataRate	OrigDataStartFrame	OrigNumFrames
30	30	8	22	m	30	40	50
Frame#	Time	Hip			RHip			RKnee			RAnkle			RBigToe			RSmallToe			RHeel			LHip			LKnee			LAnkle			LBigToe			LSmallToe			LHeel			Neck			Head			Nose			RShoulder			RElbow			RWrist			LShoulder			LElbow			LWrist		
		X1	Y1	Z1	X2	Y2	Z2	X3	Y3	Z3	X4	Y4	Z4	X5	Y5	Z5	X6	Y6	Z6	X7	Y7	Z7	X8	Y8	Z8	X9	Y9	Z9	X10	Y10	Z10	X11	Y11	Z11	X12	Y12	Z12	X13	Y13	Z13	X14	Y14	Z14	X15	Y15	Z15	X16	Y16	Z16	X17	Y17	Z17	X18	Y18	Z18	X19	Y19	Z19	X20	Y20	Z20	X21	Y21	Z21	X22	Y22	Z22
41	1.3666666666666667	0.04883135068073287	0.917795407408878	0.3565312654973068	0.03960873963276659	0.8862529856952139	0.46956994701334404	0.010027221977370143	0.5096684106332251	0.5006869898387313	-0.008913407040140743	0.10376044958263657	0.5195522621116071	0.20441129464192118	0.04278639417267074	0.5621521435170198	0.14670208619377045	0.038879234235492784	0.6158672383117545	-0.048585007014824176	0.04490214986010137	0.5048418651497688	0.039907701919885394	0.8857385295797716	0.24492634986657671	0.019663935134883424	0.5093915547565445	0.22411545124121285	0.004243591704176408	0.1122712860152055	0.20898865622076998	0.2183445456314755	0.04500396963328673	0.18422955484540376	0.16532997888157386	0.04228766537824724	0.1298977618536221	-0.03253869291825423	0.04642908213689856	0.22591932764297404	0.07051120762772839	1.5943613979231226	0.3498299055631951	0.20103586137742196	1.8015588286321034	0.33071019137078167	0.2782444350197409	1.6462302854221438	0.36199260150557433	0.03238159976165286	1.4926900339092701	0.5324376004275044	0.07745514831459743	1.2376089090176163	0.7146287533809222	0.13666359009803028	1.0459807839069364	0.8888300893936725	0.019423593553450275	1.4788275389180074	0.1431382793652723	0.025370456357059624	1.2262334145439318	0.0009481766037526161	0.07904796056941196	1.0146267806842346	-0.14966987911883334
42	1.4	0.04954298077173929	0.9179963727655625	0.3569715074195073	0.04004649652645768	0.8868149991046691	0.4702340134148052	0.01025193326917431	0.5092038817602287	0.5005920926570855	-0.008685219567638552	0.10341318093677318	0.5194430058644829	0.20499905948609976	0.04203600383507915	0.5621436583587072	0.14713162059441895	0.03850981696886769	0.6157627481686527	-0.04806432546906464	0.04409806275000365	0.5045024747710399	0.040386750646410015	0.8863107773639578	0.24550210940817127	0.01984780163742106	0.5091096232303507	0.2241027854547738	0.004898759560122055	0.11167755965919944	0.20911344950375602	0.21887237923718506	0.04493064596122777	0.18393754316507016	0.1654648888581758	0.04202866118372412	0.12989730096597465	-0.03233679562106663	0.04602009703243347	0.22603204765815585	0.07037197886140006	1.5955678061767116	0.3502971822771286	0.1950147673835245	1.8056464031734591	0.3299858474895681	0.27808733859342677	1.652087468449612	0.3634776376439688	0.03280794659649163	1.4928694683940442	0.5325295342030536	0.07976305894807469	1.2374575191524402	0.7148577133232219	0.1383443045451028	1.0449454355044976	0.8879534506510517	0.018955071021969597	1.4786886780276232	0.14407035370540835	0.02546118611026814	1.2266131794436035	0.0004917810667068601	0.07913857696413434	1.0128509985980731	-0.14987382788396628
43	1.4333333333333331	0.05031565465043127	0.9180204029479871	0.35740540626997325	0.04066604795638347	0.8872413189090964	0.4708090363669932	0.010662437056709783	0.5087965874218512	0.5005168656517568	-0.008271560900140187	0.103235349258631	0.5192061398938153	0.20543006889814389	0.04052674065620423	0.5622353762707517	0.14731019609544332	0.037988717065475755	0.6157868293880957	-0.047311336250179775	0.04314529575165529	0.5040290322419447	0.04099027146753564	0.8867349777352574	0.24598895697444473	0.020414108332855167	0.5089856604003014	0.2238974444649564	0.005202180434525997	0.11143978457399363	0.2092043905750264	0.21930972432860066	0.044808738232992376	0.18379043087668448	0.16562634953547378	0.041656744962559944	0.12995822742678673	-0.03197524481596172	0.04578394249288921	0.22627086549592232	0.06963135759796128	1.5962925489584776	0.3506641495080638	0.1919317166469094	1.8086950846295722	0.3275914295655657	0.27661854473413555	1.6562176443469452	0.3637755730983988	0.032712861476708516	1.4928450099380748	0.5328000895215979	0.08241938530492231	1.237278292848638	0.7151688922791933	0.14019365456777064	1.0441135411311815	0.8870577016295499	0.018272276256574425	1.4784721211643184	0.14482769423873856	0.025643135340398034	1.2268168518735436	3.904607040435539e-05	0.07951405068545658	1.0112856522690168	-0.15024263468651045
44	1.4666666666666666	0.05108583830424658	0.9178407661078898	0.35773878831599076	0.04139035269004038	0.8874817788917558	0.47117388376887975	0.011263269706326054	0.5085771524968329	0.5004686397364857	-0.007730716930180442	0.10328165651170869	0.5189033020955116	0.20558706544157176	0.03817788472391611	0.562527505742847	0.14710071804389652	0.037245971336499296	0.6160453495492615	-0.046565034030929243	0.042389968836894866	0.5036090530861222	0.04169114942767825	0.8869482946849058	0.2462798411247639	0.02132430265042659	0.5090428095392696	0.22362016688247974	0.00504323384957925	0.11155720966454333	0.20929604982557387	0.21953000766170944	0.04456124835045849	0.18376233976876336	0.16588021293482108	0.04123656382050508	0.13011306728645583	-0.031598125625185304	0.045718553729236965	0.22653777673087472	0.06866243380218637	1.5966576495469238	0.35090576216570035	0.19121324354484986	1.8106959631599524	0.3242009690728823	0.2746365891103042	1.6589504454501842	0.3633831275653944	0.03235661802130492	1.492617317014079	0.5331459313081787	0.0850230435537015	1.237027838782581	0.7154749014717319	0.14207190978401726	1.0434896277518315	0.8862768018227027	0.01759993567513412	1.4782487404429525	0.14520096220113457	0.025852265398652055	1.2268136882130865	-0.00026389960700841326	0.08017991393906927	1.0103330673057025	-0.15064953991845648
45	1.5	0.05177205626777959	0.9175978161500999	0.35786722148261074	0.04211395813400275	0.8875065251823888	0.47121920663479366	0.011943061668439801	0.5085470387382027	0.500430049946014	-0.007199756717173145	0.10348639323048142	0.5186099452556281	0.20542717100943853	0.03546307131029319	0.5630883636049568	0.1464993336322924	0.03631850653883483	0.6165609692570098	-0.04618529965326097	0.042216557382708436	0.5035480821788321	0.04241850210089122	0.8869388950009306	0.24636551138158605	0.022464259302553236	0.5091889932121703	0.223398899260169	0.004561307779960669	0.11189227879975328	0.20942174506105643	0.2195506161210445	0.04420923175991359	0.18379497683739698	0.16626631379590787	0.04084041781994585	0.13037604164361918	-0.031354326095761414	0.045745082561940764	0.22676217500406673	0.06772553967640504	1.596780962947802	0.35109932130140153	0.19101272672789005	1.8119049995006224	0.32135389878405063	0.27268503000585514	1.6606831816241627	0.3626794390778825	0.03195923316982839	1.4922501216156834	0.5335304649400733	0.08688732926065157	1.2367421910515823	0.7156081023769976	0.1438095089089428	1.043044660519477	0.8856854997618898	0.017080873652363413	1.4780790617441701	0.14517844664844806	0.02599826122377483	1.2266552166813351	-0.00033571907032443947	0.08108080544759111	1.0101207384366342	-0.15094111929612847
46	1.5333333333333334	0.052338435689005314	0.9174476391758407	0.3577267537059972	0.042801642515632725	0.8872386242729036	0.47093491047617525	0.01252665894145114	0.5085854427828396	0.5003998405362725	-0.006801429346598158	0.1037289932505674	0.5183953093822086	0.20501861082710826	0.03356081713705958	0.5638146601355818	0.14572130639839773	0.03549117810770449	0.6172039021498666	-0.04621965064696407	0.04270033213884805	0.503910243395228	0.04311232129394927	0.8866883210278528	0.24632213905867087	0.023746562862796746	0.5092885700567906	0.2233142859663961	0.004108822272043211	0.11229334045066322	0.20957965786282245	0.219524324577472	0.04387122035358109	0.1838498377464295	0.1667513560552791	0.04052139734370517	0.13077677780004807	-0.031320214409920694	0.04581391029934521	0.22691484875135448	0.06684097146826277	1.5967573113305258	0.35131145570065153	0.18943500578936204	1.8126712065585542	0.3204409447152882	0.27098818490799775	1.6617303231437566	0.3619282221166553	0.03165533089914109	1.4918043745723342	0.534004443418393	0.08742031731945844	1.236477965710464	0.7154215034405961	0.14528137564075136	1.0428095738670355	0.88526400407898	0.016677440733787047	1.4779323500467196	0.14494663666378824	0.026148196597613912	1.2264183833303277	-0.00019266151303484562	0.08220536745627764	1.0104857741446527	-0.15105341787056512
47	1.5666666666666669	0.0527989285978168	0.9174206118839336	0.3573259954995982	0.04343567370290712	0.8865364011206887	0.4703448683500995	0.012846135073050574	0.5084960244177836	0.5003961167671152	-0.0066055713707519215	0.10399826979472905	0.5182680388992874	0.20449480100063677	0.033724408320713765	0.5644724255567872	0.14513696734222795	0.035265898856610675	0.617678447000512	-0.04645032498323878	0.04369332606965832	0.5045280949648998	0.043731514992550055	0.8861430909925042	0.24625992427953045	0.025081029119806912	0.5092203903966581	0.22344855202232577	0.004026339687636996	0.1126401498710238	0.20968588143857095	0.2195939682394044	0.04366996803366286	0.18391496257842868	0.16730175320728097	0.04028970377916887	0.13135107971937005	-0.03151234008622545	0.045905967254365715	0.22696946551651584	0.06583309606608434	1.5966693273318362	0.35150977492443525	0.18563631388453425	1.8132400454173345	0.3218870075186844	0.26951922812831447	1.662293300327835	0.36131098657575783	0.031581553157469563	1.4912709873553287	0.5346844795127217	0.08634826340654399	1.2362817987365646	0.7148044060084372	0.1464541196295263	1.042879148900731	0.8849399503755122	0.016205108500191415	1.47769807203483	0.1447705673554932	0.026528479592140823	1.2261456122983685	4.3570889897954864e-05	0.0836519230666869	1.011102815041779	-0.1510156598735411
48	1.6	0.053200576264963086	0.9174347082085917	0.3567292056447806	0.04395150494537137	0.8852940290350753	0.46940456623761284	0.012792309756028972	0.5081390352410479	0.5004159988567468	-0.006628558356094986	0.10442469937108369	0.5181804142262486	0.20397479185634024	0.03625195507204414	0.564919113714359	0.1450243267410159	0.03596936802487447	0.617729592755895	-0.04684349173633611	0.04518503193769259	0.5053170606126415	0.0442409063027916	0.8852635000586159	0.246244266290492	0.02634416937669875	0.5089234348671795	0.22389212974645442	0.0044119287964247455	0.11289583870363379	0.2096125485180489	0.21978278981679883	0.04363640536923364	0.18401046569764826	0.16799072048768016	0.040130643206357106	0.13209230607846595	-0.031930272258569294	0.04599562964974963	0.22690170335380633	0.06448109166733113	1.5966064124422634	0.35157807094774823	0.17991882897237507	1.8137140555697089	0.3252319754769334	0.26820320521858093	1.6625121469859243	0.3609134383128259	0.03190034095490822	1.490593439095314	0.5357180337842871	0.08385344773193018	1.2362853120270916	0.7136102943999426	0.14738704717427484	1.0433067788195272	0.8846737225961832	0.015465608088937053	1.477291757627011	0.1448347685223373	0.027337288767940122	1.2258595404030272	0.00025327651341131013	0.08553656738984458	1.0116812190021551	-0.1508696673645425
